<svg width="119" height="35" viewBox="0 0 119 35" fill="none" xmlns="http://www.w3.org/2000/svg">
<g clip-path="url(#clip0_4_9)">
<path fill-rule="evenodd" clip-rule="evenodd" d="M7.56592 3.40215C6.31516 4.27672 5.18415 5.31074 4.20232 6.47474C8.21452 6.10224 13.3119 6.71048 19.2299 9.6695C25.5495 12.8292 30.6383 12.936 34.1799 12.2529C33.8585 11.28 33.4539 10.3449 32.9748 9.45592C28.9206 9.88351 23.7232 9.31752 17.666 6.28903C13.8196 4.36585 10.4291 3.57363 7.56592 3.40215ZM30.6065 6.08504C27.4049 2.50791 22.7522 0.256714 17.5737 0.256714C16.0529 0.256714 14.5774 0.450891 13.1707 0.81578C15.0759 1.33561 17.0997 2.09613 19.2299 3.16121C23.6646 5.37854 27.4933 6.09248 30.6065 6.08504ZM34.9371 15.6681C30.6585 16.513 24.7502 16.3394 17.666 12.7973C11.043 9.48582 5.7717 9.52752 2.21653 10.3176C2.03302 10.3583 1.85383 10.4012 1.67897 10.4457C1.21351 11.458 0.841969 12.5225 0.575382 13.6279C0.860111 13.5519 1.15434 13.4796 1.4579 13.4121C5.77094 12.4536 11.8649 12.4953 19.2299 16.1778C25.8529 19.4893 31.1242 19.4476 34.6795 18.6575C34.8012 18.6305 34.9213 18.6025 35.0393 18.5737C35.0522 18.298 35.0587 18.0206 35.0587 17.7417C35.0587 17.0401 35.0174 16.3482 34.9371 15.6681ZM34.4684 22.2636C30.2314 23.0044 24.4951 22.7201 17.666 19.3056C11.043 15.9941 5.7717 16.0358 2.21653 16.8259C1.42738 17.0011 0.71748 17.2147 0.0912456 17.4402C0.0895382 17.5405 0.0886841 17.641 0.0886841 17.7417C0.0886841 27.3984 7.91699 35.2267 17.5737 35.2267C25.6667 35.2267 32.4756 29.7285 34.4684 22.2636Z" fill="#3182CE"/>
<path d="M52.9181 15.0386C52.866 14.4657 52.6342 14.0204 52.2228 13.7027C51.8165 13.3798 51.2358 13.2183 50.4806 13.2183C49.9806 13.2183 49.5639 13.2834 49.2306 13.4136C48.8973 13.5438 48.6473 13.7235 48.4806 13.9527C48.3139 14.1766 48.228 14.4344 48.2228 14.7261C48.2124 14.9657 48.2592 15.1766 48.3634 15.3589C48.4728 15.5412 48.629 15.7027 48.8322 15.8433C49.0405 15.9787 49.2905 16.0985 49.5822 16.2027C49.8738 16.3068 50.2019 16.398 50.5665 16.4761L51.9415 16.7886C52.7332 16.9605 53.4311 17.1896 54.0353 17.4761C54.6447 17.7626 55.1551 18.1037 55.5665 18.4995C55.9832 18.8954 56.2983 19.3511 56.5118 19.8667C56.7254 20.3824 56.8348 20.9605 56.84 21.6011C56.8348 22.6115 56.5795 23.4787 56.0743 24.2027C55.5691 24.9266 54.8426 25.4813 53.8947 25.8667C52.9519 26.2521 51.8139 26.4449 50.4806 26.4449C49.142 26.4449 47.9754 26.2443 46.9806 25.8433C45.9858 25.4423 45.2124 24.8329 44.6603 24.0152C44.1082 23.1975 43.8243 22.1636 43.8087 20.9136H47.5118C47.5431 21.4292 47.6811 21.8589 47.9259 22.2027C48.1707 22.5464 48.5066 22.8068 48.9337 22.9839C49.366 23.161 49.866 23.2495 50.4337 23.2495C50.9545 23.2495 51.3973 23.1792 51.7618 23.0386C52.1316 22.898 52.4155 22.7027 52.6134 22.4527C52.8113 22.2027 52.9129 21.9162 52.9181 21.5933C52.9129 21.2912 52.8191 21.0334 52.6368 20.8199C52.4545 20.6011 52.1733 20.4136 51.7931 20.2574C51.4181 20.0959 50.9389 19.9475 50.3556 19.812L48.6837 19.4214C47.2983 19.1037 46.2072 18.5907 45.4103 17.8824C44.6134 17.1688 44.2176 16.2053 44.2228 14.9917C44.2176 14.0021 44.4832 13.135 45.0197 12.3902C45.5561 11.6454 46.2983 11.0646 47.2462 10.648C48.1941 10.2313 49.2749 10.023 50.4884 10.023C51.728 10.023 52.8035 10.2339 53.715 10.6558C54.6316 11.0725 55.3426 11.6584 55.8478 12.4136C56.353 13.1688 56.6108 14.0438 56.6212 15.0386H52.9181ZM62.1759 26.4449C61.4103 26.4449 60.7306 26.3173 60.1368 26.062C59.5483 25.8016 59.0822 25.411 58.7384 24.8902C58.3999 24.3641 58.2306 23.7053 58.2306 22.9136C58.2306 22.2469 58.3478 21.6844 58.5822 21.2261C58.8165 20.7678 59.1394 20.3954 59.5509 20.1089C59.9624 19.8225 60.4363 19.6063 60.9728 19.4605C61.5092 19.3094 62.0822 19.2079 62.6915 19.1558C63.3738 19.0933 63.9233 19.0282 64.34 18.9605C64.7566 18.8876 65.0587 18.786 65.2462 18.6558C65.4389 18.5204 65.5353 18.3303 65.5353 18.0855V18.0464C65.5353 17.6454 65.3973 17.3355 65.1212 17.1167C64.8452 16.898 64.4728 16.7886 64.004 16.7886C63.4988 16.7886 63.0926 16.898 62.7853 17.1167C62.478 17.3355 62.2827 17.6376 62.1993 18.023L58.6759 17.898C58.7801 17.1688 59.0483 16.5178 59.4806 15.9449C59.9181 15.3667 60.517 14.9136 61.2775 14.5855C62.0431 14.2521 62.9624 14.0855 64.0353 14.0855C64.8009 14.0855 65.5066 14.1766 66.1525 14.3589C66.7983 14.536 67.3608 14.7964 67.84 15.1402C68.3191 15.4787 68.6889 15.8954 68.9493 16.3902C69.215 16.885 69.3478 17.4501 69.3478 18.0855V26.2417H65.754V24.5699H65.6603C65.4467 24.9761 65.1733 25.3199 64.84 25.6011C64.5118 25.8824 64.1238 26.0933 63.6759 26.2339C63.2332 26.3745 62.7332 26.4449 62.1759 26.4449ZM63.3556 23.9449C63.767 23.9449 64.1368 23.8615 64.465 23.6949C64.7983 23.5282 65.0639 23.299 65.2618 23.0074C65.4598 22.7105 65.5587 22.3667 65.5587 21.9761V20.8355C65.4493 20.8928 65.3165 20.9449 65.1603 20.9917C65.0092 21.0386 64.8426 21.0829 64.6603 21.1245C64.478 21.1662 64.2905 21.2027 64.0978 21.2339C63.9051 21.2652 63.7202 21.2938 63.5431 21.3199C63.1837 21.3771 62.8764 21.4657 62.6212 21.5855C62.3712 21.7053 62.1785 21.8615 62.0431 22.0542C61.9129 22.2417 61.8478 22.4657 61.8478 22.7261C61.8478 23.1219 61.9884 23.424 62.2697 23.6324C62.5561 23.8407 62.9181 23.9449 63.3556 23.9449ZM75.0665 26.4449C74.3009 26.4449 73.6212 26.3173 73.0275 26.062C72.4389 25.8016 71.9728 25.411 71.629 24.8902C71.2905 24.3641 71.1212 23.7053 71.1212 22.9136C71.1212 22.2469 71.2384 21.6844 71.4728 21.2261C71.7072 20.7678 72.0301 20.3954 72.4415 20.1089C72.853 19.8225 73.3269 19.6063 73.8634 19.4605C74.3999 19.3094 74.9728 19.2079 75.5822 19.1558C76.2644 19.0933 76.8139 19.0282 77.2306 18.9605C77.6473 18.8876 77.9493 18.786 78.1368 18.6558C78.3295 18.5204 78.4259 18.3303 78.4259 18.0855V18.0464C78.4259 17.6454 78.2879 17.3355 78.0118 17.1167C77.7358 16.898 77.3634 16.7886 76.8947 16.7886C76.3894 16.7886 75.9832 16.898 75.6759 17.1167C75.3686 17.3355 75.1733 17.6376 75.09 18.023L71.5665 17.898C71.6707 17.1688 71.9389 16.5178 72.3712 15.9449C72.8087 15.3667 73.4077 14.9136 74.1681 14.5855C74.9337 14.2521 75.853 14.0855 76.9259 14.0855C77.6915 14.0855 78.3973 14.1766 79.0431 14.3589C79.6889 14.536 80.2514 14.7964 80.7306 15.1402C81.2098 15.4787 81.5795 15.8954 81.84 16.3902C82.1056 16.885 82.2384 17.4501 82.2384 18.0855V26.2417H78.6447V24.5699H78.5509C78.3374 24.9761 78.0639 25.3199 77.7306 25.6011C77.4025 25.8824 77.0144 26.0933 76.5665 26.2339C76.1238 26.3745 75.6238 26.4449 75.0665 26.4449ZM76.2462 23.9449C76.6577 23.9449 77.0275 23.8615 77.3556 23.6949C77.6889 23.5282 77.9545 23.299 78.1525 23.0074C78.3504 22.7105 78.4493 22.3667 78.4493 21.9761V20.8355C78.34 20.8928 78.2072 20.9449 78.0509 20.9917C77.8999 21.0386 77.7332 21.0829 77.5509 21.1245C77.3686 21.1662 77.1811 21.2027 76.9884 21.2339C76.7957 21.2652 76.6108 21.2938 76.4337 21.3199C76.0743 21.3771 75.767 21.4657 75.5118 21.5855C75.2618 21.7053 75.0691 21.8615 74.9337 22.0542C74.8035 22.2417 74.7384 22.4657 74.7384 22.7261C74.7384 23.1219 74.879 23.424 75.1603 23.6324C75.4467 23.8407 75.8087 23.9449 76.2462 23.9449ZM84.6056 26.2417V24.062L90.1681 17.2886V17.2105H84.8009V14.2417H94.7228V16.6324L89.5665 23.1949V23.273H94.9103V26.2417H84.6056ZM99.715 30.7417C99.2566 30.7417 98.8243 30.7053 98.4181 30.6324C98.0118 30.5646 97.6629 30.4735 97.3712 30.3589L98.215 27.5855C98.59 27.7105 98.9285 27.7834 99.2306 27.8042C99.5379 27.8251 99.8009 27.7756 100.02 27.6558C100.244 27.5412 100.415 27.3355 100.535 27.0386L100.684 26.6792L96.4181 14.2417H100.418L102.629 22.8042H102.754L104.996 14.2417H109.02L104.496 27.3902C104.277 28.0464 103.968 28.6245 103.567 29.1245C103.171 29.6298 102.658 30.0256 102.027 30.312C101.402 30.5985 100.632 30.7417 99.715 30.7417Z" fill="#2C5282"/>
</g>
<defs>
<clipPath id="clip0_4_9">
<rect width="119" height="35" fill="white"/>
</clipPath>
</defs>
</svg>
