<svg width="164" height="42" viewBox="0 0 164 42" fill="none" xmlns="http://www.w3.org/2000/svg">
  <path
    d="M30.96 17.719C34.098 17.719 34.804 19.082 34.804 20.782C34.804 22.584 33.95 23.875 30.973 23.875C28.015 23.875 27.16 22.659 27.16 20.782C27.16 18.935 28.092 17.719 30.96 17.719Z"
    fill="currentColor" />
  <path
    d="M63.754 17.719C66.892 17.719 67.598 19.082 67.598 20.782C67.598 22.584 66.743 23.875 63.767 23.875C60.81 23.875 59.954 22.659 59.954 20.782C59.954 18.935 60.886 17.719 63.754 17.719Z"
    fill="currentColor" />
  <path fill-rule="evenodd" clip-rule="evenodd"
    d="M3.17676 38.5V3.047H161.755V38.5H3.17676ZM78.7548 36.5H159.755V5.047H78.7548V36.5ZM30.975 26.893C36.546 26.893 38.888 24.49 38.888 20.737C38.888 16.923 36.25 14.656 30.975 14.656C25.781 14.656 23.047 17.118 23.047 20.737C23.047 24.821 25.915 26.893 30.975 26.893ZM11.606 14.926V26.713H22.85V23.574H15.674V14.926H11.606ZM51.472 26.713L51.367 25.571C50.0061 26.5422 48.3497 27.0096 46.682 26.893C44.175 26.893 42.087 26.142 40.916 24.626C40.1436 23.5192 39.7536 22.1906 39.805 20.842C39.7611 19.5217 40.1646 18.2253 40.95 17.163C42.135 15.692 44.283 14.716 47.481 14.716C51.16 14.716 53.322 15.842 54.252 17.734C54.4516 18.1796 54.5689 18.6576 54.598 19.145H50.706C50.6079 18.8488 50.4254 18.5878 50.181 18.394C49.4057 17.88 48.4799 17.6423 47.553 17.719C47.0093 17.6531 46.4577 17.7033 45.9349 17.8664C45.4121 18.0295 44.9298 18.3017 44.52 18.665C44.0546 19.302 43.8361 20.0862 43.905 20.872C43.851 21.6217 44.0519 22.3677 44.475 22.989C44.8885 23.3743 45.3801 23.6661 45.9163 23.8449C46.4526 24.0236 47.0209 24.0851 47.583 24.025C48.6993 24.1158 49.8076 23.7715 50.676 23.064C50.8625 22.8308 50.9911 22.5566 51.051 22.264H46.863V19.731H54.7V26.713H51.472ZM63.769 26.893C69.339 26.893 71.682 24.49 71.682 20.737C71.682 16.923 69.0399 14.656 63.769 14.656C58.575 14.656 55.841 17.118 55.841 20.737C55.841 24.821 58.709 26.893 63.769 26.893Z"
    fill="currentColor" />
  <path d="M85.607 26.668V14.881H88.507V26.668H85.607Z" fill="currentColor" />
  <path
    d="M103.399 21.743C102.664 22.704 101.399 23.143 99.616 23.154C99.24 23.154 94.255 23.139 94.255 23.139V26.668H91.417V14.881H99.617C100.274 14.8115 100.939 14.8812 101.567 15.0855C102.196 15.2899 102.774 15.6243 103.265 16.067C103.913 16.9112 104.228 17.9638 104.151 19.025C104.217 19.9902 103.952 20.9491 103.399 21.743ZM101.072 17.9C100.772 17.45 100.125 17.2 99.03 17.2H94.24V20.788H98.999C100.17 20.788 100.787 20.548 101.072 20.082C101.241 19.7537 101.314 19.384 101.282 19.016C101.307 18.6322 101.235 18.2483 101.072 17.9Z"
    fill="currentColor" />
  <path
    d="M112.514 26.848C107.168 26.848 105.532 24.848 105.532 22.869H108.565C108.565 23.845 109.901 24.581 112.649 24.581C115.381 24.581 116.102 24.1 116.102 23.319C116.102 22.448 115.562 22.178 113.024 21.893C112.524 21.848 111.163 21.683 110.652 21.608C107.052 21.202 105.666 20.136 105.666 18.229C105.666 16.217 107.694 14.701 112.093 14.701C116.868 14.701 118.7 16.578 118.7 18.53H115.7C115.7 17.539 114.574 16.968 111.916 16.968C109.183 16.968 108.598 17.343 108.598 18.079C108.598 18.845 109.198 19.085 112.098 19.43C112.759 19.521 114.23 19.686 114.635 19.73C117.699 20.045 119.08 21.156 119.08 23.123C119.075 25.466 116.973 26.848 112.514 26.848Z"
    fill="currentColor" />
  <path
    d="M127.62 26.833C123.702 26.833 121.149 25.286 121.149 22.033V14.881H124.016V22.073C124.016 23.56 125.233 24.55 127.74 24.55C130.007 24.55 131.359 23.62 131.359 22.073V14.881H134.197V22.3C134.197 25.257 131.824 26.833 127.62 26.833Z"
    fill="currentColor" />
  <path
    d="M149.737 26.668V18.8L146.058 26.668H143.266L139.692 18.8V26.668H136.992V14.881H140.65L144.704 23.86L148.848 14.881H152.448V26.668H149.737Z"
    fill="currentColor" />
</svg>