<svg width="219" height="40" viewBox="0 0 219 40" fill="none" xmlns="http://www.w3.org/2000/svg">
  <g clip-path="url(#clip0_19_85)">
    <path d="M122.605 29.5238H127.268V11.9352H122.605V29.5238ZM122.605 9.19238H127.268V5.00952H122.605V9.19238Z"
      fill="currentColor" />
    <path
      d="M130.273 35.2838H134.936V27.5352H135.004C135.998 29.0438 137.61 30.0381 140.078 30.0381C144.604 30.0381 147.69 26.4381 147.69 20.7467C147.69 15.2609 144.707 11.4552 140.044 11.4552C137.644 11.4552 135.998 12.5867 134.867 14.1295H134.764V11.9352H130.273V35.2838ZM139.084 26.1638C136.307 26.1638 134.833 24.0724 134.833 20.8838C134.833 17.7295 135.998 15.2267 138.913 15.2267C141.793 15.2267 142.958 17.5581 142.958 20.8838C142.958 24.2095 141.45 26.1638 139.084 26.1638Z"
      fill="currentColor" />
    <path
      d="M156.991 30.0381C161.38 30.0381 164.397 27.9124 164.397 24.3809C164.397 20.2667 161.14 19.4438 158.191 18.8267C155.688 18.3124 153.357 18.1752 153.357 16.6667C153.357 15.3981 154.557 14.7124 156.374 14.7124C158.363 14.7124 159.563 15.3981 159.768 17.2838H163.985C163.643 13.7524 161.071 11.4552 156.443 11.4552C152.431 11.4552 149.277 13.2724 149.277 17.0781C149.277 20.9181 152.363 21.7752 155.517 22.3924C157.917 22.8724 160.145 23.0438 160.145 24.7238C160.145 25.9581 158.98 26.7467 156.923 26.7467C154.831 26.7467 153.391 25.8552 153.083 23.8324H148.763C149.037 27.5695 151.883 30.0381 156.991 30.0381Z"
      fill="currentColor" />
    <path
      d="M182.1 29.5238V11.9352H177.437V22.0838C177.437 24.4152 176.1 26.0609 173.906 26.0609C171.917 26.0609 170.992 24.9295 170.992 22.8724V11.9352H166.363V23.6609C166.363 27.5009 168.557 30.0038 172.466 30.0038C174.935 30.0038 176.306 29.0781 177.506 27.4667H177.609V29.5238H182.1Z"
      fill="currentColor" />
    <path
      d="M185.116 29.5238H189.779V19.3067C189.779 16.9752 191.048 15.4667 192.934 15.4667C194.648 15.4667 195.642 16.4952 195.642 18.4838V29.5238H200.305V19.3067C200.305 16.9752 201.505 15.4667 203.459 15.4667C205.174 15.4667 206.168 16.4952 206.168 18.4838V29.5238H210.831V17.6952C210.831 13.8552 208.739 11.4552 205.036 11.4552C202.808 11.4552 200.956 12.6209 199.756 14.5409H199.688C198.831 12.6895 197.048 11.4552 194.819 11.4552C192.385 11.4552 190.671 12.6895 189.711 14.3009H189.608V11.9352H185.116V29.5238Z"
      fill="currentColor" />
    <path d="M1.07416 29.5238H5.73701V5.00952H1.07416V29.5238Z" fill="currentColor" />
    <path
      d="M17.1384 30.0381C22.5898 30.0381 26.3269 25.9924 26.3269 20.7467C26.3269 15.5009 22.5898 11.4552 17.1384 11.4552C11.6869 11.4552 7.94978 15.5009 7.94978 20.7467C7.94978 25.9924 11.6869 30.0381 17.1384 30.0381ZM17.1384 26.4724C14.2584 26.4724 12.6812 24.1752 12.6812 20.7467C12.6812 17.3181 14.2584 14.9867 17.1384 14.9867C19.9841 14.9867 21.5955 17.3181 21.5955 20.7467C21.5955 24.1752 19.9841 26.4724 17.1384 26.4724Z"
      fill="currentColor" />
    <path
      d="M36.243 35.5238C38.8487 35.5238 41.1116 34.9067 42.5858 33.5352C43.8887 32.3352 44.6773 30.6552 44.6773 28.1867V11.9352H40.1859V13.7867H40.1173C39.0544 12.3124 37.443 11.4552 35.2487 11.4552C30.7916 11.4552 27.6373 14.8152 27.6373 20.0609C27.6373 25.3752 31.4773 28.4609 35.3859 28.4609C37.6144 28.4609 38.9516 27.5695 39.9801 26.4038H40.083V28.3238C40.083 30.7238 38.8144 31.9924 36.1744 31.9924C34.0144 31.9924 33.0201 31.1352 32.643 30.0381H28.0144C28.4944 33.4667 31.443 35.5238 36.243 35.5238ZM36.1744 24.7238C33.7744 24.7238 32.1973 22.9752 32.1973 19.9924C32.1973 17.0438 33.7744 15.1924 36.1401 15.1924C38.9516 15.1924 40.323 17.3867 40.323 19.9581C40.323 22.5638 39.123 24.7238 36.1744 24.7238Z"
      fill="currentColor" />
    <path
      d="M56.0111 30.0381C61.4625 30.0381 65.1997 25.9924 65.1997 20.7467C65.1997 15.5009 61.4625 11.4552 56.0111 11.4552C50.5597 11.4552 46.8225 15.5009 46.8225 20.7467C46.8225 25.9924 50.5597 30.0381 56.0111 30.0381ZM56.0111 26.4724C53.1311 26.4724 51.554 24.1752 51.554 20.7467C51.554 17.3181 53.1311 14.9867 56.0111 14.9867C58.8568 14.9867 60.4683 17.3181 60.4683 20.7467C60.4683 24.1752 58.8568 26.4724 56.0111 26.4724Z"
      fill="currentColor" />
    <path
      d="M212.525 9.04762C212.525 8.25864 213.165 7.61905 213.954 7.61905H216.811C217.6 7.61905 218.24 8.25864 218.24 9.04762C218.24 9.8366 217.6 10.4762 216.811 10.4762H213.954C213.165 10.4762 212.525 9.8366 212.525 9.04762Z"
      fill="currentColor" />
    <path fill-rule="evenodd" clip-rule="evenodd"
      d="M93.4777 0C104.523 0 113.478 8.95431 113.478 20C113.478 31.0457 104.523 40 93.4777 40C82.432 40 73.4777 31.0457 73.4777 20C73.4777 8.95431 82.432 0 93.4777 0ZM92.7548 1.49659C90.4731 1.81769 88.3005 3.65108 86.614 6.7174C86.1248 7.60683 85.6834 8.58946 85.2988 9.65044C87.592 9.07417 90.1111 8.73442 92.7548 8.68187V1.49659ZM83.6084 10.1308C84.0868 8.62958 84.6719 7.2484 85.3472 6.02065C86.1832 4.50059 87.1754 3.18795 88.2933 2.17977C82.2144 3.94523 77.4229 8.73679 75.6574 14.8157C76.6656 13.6978 77.9782 12.7056 79.4983 11.8696C80.7261 11.1943 82.1072 10.6091 83.6084 10.1308ZM83.1281 11.8211C82.5518 14.1143 82.2121 16.6334 82.1595 19.2771H74.9742C75.2953 16.9954 77.1287 14.8228 80.1951 13.1364C81.0845 12.6472 82.0671 12.2058 83.1281 11.8211ZM83.6056 19.2771C83.6653 16.392 84.0807 13.6834 84.7679 11.2902C87.1611 10.603 89.8697 10.1876 92.7548 10.1279V13.2508C91.6785 16.0062 89.4833 18.2012 86.7278 19.2771H83.6056ZM82.1595 20.7229H74.9742C75.2953 23.0046 77.1287 25.1771 80.1951 26.8636C81.0845 27.3528 82.0671 27.7942 83.1281 28.1789C82.5518 25.8857 82.2121 23.3666 82.1595 20.7229ZM84.7679 28.7098C84.0807 26.3166 83.6653 23.608 83.6056 20.7229H86.7278C89.4833 21.7988 91.6785 23.9938 92.7548 26.7492V29.8721C89.8697 29.8124 87.1611 29.397 84.7679 28.7098ZM83.6084 29.8692C82.1072 29.3909 80.7261 28.8057 79.4983 28.1304C77.9782 27.2944 76.6656 26.3022 75.6574 25.1843C77.4229 31.2632 82.2144 36.0548 88.2933 37.8202C87.1754 36.812 86.1832 35.4994 85.3472 33.9793C84.6719 32.7516 84.0868 31.3704 83.6084 29.8692ZM92.7548 38.5034C90.4731 38.1823 88.3005 36.3489 86.614 33.2826C86.1248 32.3932 85.6834 31.4105 85.2988 30.3496C87.592 30.9258 90.1111 31.2656 92.7548 31.3181V38.5034ZM98.662 37.8202C99.7799 36.812 100.772 35.4994 101.608 33.9793C102.283 32.7516 102.869 31.3704 103.347 29.8692C104.848 29.3909 106.229 28.8057 107.457 28.1304C108.977 27.2944 110.29 26.3022 111.298 25.1843C109.532 31.2632 104.741 36.0548 98.662 37.8202ZM101.657 30.3496C101.272 31.4105 100.83 32.3932 100.341 33.2826C98.6548 36.3489 96.4822 38.1823 94.2005 38.5034V31.3181C96.8442 31.2656 99.3633 30.9258 101.657 30.3496ZM103.827 28.1789C104.888 27.7942 105.871 27.3528 106.76 26.8636C109.827 25.1772 111.66 23.0046 111.981 20.7229H104.796C104.743 23.3666 104.403 25.8857 103.827 28.1789ZM103.35 20.7229C103.29 23.608 102.875 26.3166 102.187 28.7098C99.7942 29.397 97.0856 29.8124 94.2005 29.8721V26.7515C95.2765 23.9951 97.4722 21.7991 100.228 20.7229H103.35ZM104.796 19.2771H111.981C111.66 16.9954 109.827 14.8228 106.76 13.1364C105.871 12.6472 104.888 12.2058 103.827 11.8211C104.403 14.1143 104.743 16.6334 104.796 19.2771ZM102.187 11.2902C102.875 13.6834 103.29 16.392 103.35 19.2771H100.228C97.4722 18.2009 95.2765 16.0049 94.2005 13.2485V10.1279C97.0856 10.1876 99.7942 10.603 102.187 11.2902ZM103.347 10.1308C104.848 10.6091 106.229 11.1943 107.457 11.8696C108.977 12.7056 110.29 13.6978 111.298 14.8157C109.532 8.73679 104.741 3.94523 98.662 2.17977C99.7799 3.18795 100.772 4.50059 101.608 6.02065C102.283 7.2484 102.869 8.62958 103.347 10.1308ZM94.2005 1.49659C96.4822 1.81769 98.6548 3.65108 100.341 6.7174C100.83 7.60684 101.272 8.58946 101.657 9.65044C99.3633 9.07417 96.8442 8.73442 94.2005 8.68187V1.49659Z"
      fill="currentColor" />
  </g>
  <defs>
    <clipPath id="clip0_19_85">
      <rect width="218" height="40" fill="white" transform="translate(0.25)" />
    </clipPath>
  </defs>
</svg>