<svg width="28" height="28" viewBox="0 0 28 28" fill="none" xmlns="http://www.w3.org/2000/svg">
  <g clip-path="url(#clip0_50_83)">
    <path
      d="M6.153 12.25C9.53575 12.25 12.278 14.9923 12.278 18.375C12.278 21.7577 9.53575 24.5 6.153 24.5C2.77025 24.5 0.028 21.7577 0.028 18.375L0 17.5C0 10.7345 5.4845 5.25 12.25 5.25V8.75C9.912 8.75 7.71575 9.66 6.062 11.312C5.7435 11.6305 5.453 11.9682 5.19225 12.3235C5.5055 12.2745 5.82575 12.2483 6.15125 12.2483L6.153 12.25ZM21.903 12.25C25.2858 12.25 28.028 14.9923 28.028 18.375C28.028 21.7577 25.2858 24.5 21.903 24.5C18.5203 24.5 15.778 21.7577 15.778 18.375L15.75 17.5C15.75 10.7345 21.2345 5.25 28 5.25V8.75C25.662 8.75 23.4658 9.66 21.812 11.312C21.4935 11.6305 21.203 11.9682 20.9423 12.3235C21.2555 12.2745 21.5758 12.2483 21.903 12.2483V12.25Z"
      fill="currentColor" />
  </g>
  <defs>
    <clipPath id="clip0_50_83">
      <rect width="28" height="28" fill="white" />
    </clipPath>
  </defs>
</svg>