<svg width="256" height="256" viewBox="0 0 256 256" fill="none" xmlns="http://www.w3.org/2000/svg">
  <path fill-rule="evenodd" clip-rule="evenodd"
    d="M67.7572 39.2486C60.1031 44.6005 53.1818 50.9283 47.1735 58.0514C71.7263 55.7719 102.92 59.494 139.135 77.6018C177.808 96.9378 208.949 97.5915 230.622 93.411C228.656 87.457 226.18 81.7347 223.247 76.2948C198.438 78.9115 166.632 75.4479 129.565 56.9149C106.027 45.146 85.2786 40.2979 67.7572 39.2486ZM208.755 55.6666C189.162 33.7762 160.69 20 129 20C119.694 20 110.664 21.1883 102.056 23.4212C113.714 26.6024 126.1 31.2563 139.135 37.7741C166.273 51.3431 189.703 55.7121 208.755 55.6666ZM235.256 114.31C209.073 119.481 172.917 118.419 129.565 96.7425C89.0354 76.4777 56.7773 76.7329 35.0214 81.5677C33.8984 81.817 32.8019 82.0792 31.7318 82.352C28.8834 88.5468 26.6097 95.061 24.9784 101.826C26.7208 101.36 28.5213 100.918 30.379 100.505C56.7727 94.6394 94.0649 94.8941 139.135 117.429C179.665 137.694 211.923 137.439 233.679 132.604C234.424 132.439 235.159 132.268 235.881 132.091C235.96 130.404 236 128.707 236 127C236 122.707 235.748 118.472 235.256 114.31ZM232.388 154.672C206.459 159.205 171.356 157.465 129.565 136.57C89.0354 116.305 56.7773 116.561 35.0214 121.395C30.1922 122.468 25.8479 123.775 22.0157 125.155C22.0052 125.768 22 126.384 22 127C22 186.095 69.9055 234 129 234C178.525 234 220.192 200.353 232.388 154.672Z"
    fill="#3182CE" />
</svg>