<svg width="171" height="41" viewBox="0 0 171 41" fill="none" xmlns="http://www.w3.org/2000/svg">
  <g clip-path="url(#clip0_19_74)">
    <path d="M51.7775 29.3232H63.7295V25.7232H56.0255V12.1632H51.7775V29.3232Z" fill="currentColor" />
    <path
      d="M70.8106 26.9232C69.1066 26.9232 68.2186 25.4352 68.2186 23.2032C68.2186 20.9712 69.1066 19.4592 70.8106 19.4592C72.5146 19.4592 73.4266 20.9712 73.4266 23.2032C73.4266 25.4352 72.5146 26.9232 70.8106 26.9232ZM70.8346 29.7072C74.7946 29.7072 77.3866 26.8992 77.3866 23.2032C77.3866 19.5072 74.7946 16.6992 70.8346 16.6992C66.8986 16.6992 64.2586 19.5072 64.2586 23.2032C64.2586 26.8992 66.8986 29.7072 70.8346 29.7072Z"
      fill="currentColor" />
    <path
      d="M84.241 33.5712C86.065 33.5712 87.673 33.1632 88.753 32.2032C89.737 31.3152 90.385 29.9712 90.385 28.1232V17.0352H86.641V18.3552H86.593C85.873 17.3232 84.769 16.6752 83.137 16.6752C80.089 16.6752 77.977 19.2192 77.977 22.8192C77.977 26.5872 80.545 28.6512 83.305 28.6512C84.793 28.6512 85.729 28.0512 86.449 27.2352H86.545V28.4592C86.545 29.9472 85.849 30.8112 84.193 30.8112C82.897 30.8112 82.249 30.2592 82.033 29.6112H78.241C78.625 32.1792 80.857 33.5712 84.241 33.5712ZM84.217 25.7472C82.753 25.7472 81.793 24.5472 81.793 22.6992C81.793 20.8272 82.753 19.6272 84.217 19.6272C85.849 19.6272 86.713 21.0192 86.713 22.6752C86.713 24.4032 85.921 25.7472 84.217 25.7472Z"
      fill="currentColor" />
    <path
      d="M98.0834 26.9232C96.3794 26.9232 95.4914 25.4352 95.4914 23.2032C95.4914 20.9712 96.3794 19.4592 98.0834 19.4592C99.7874 19.4592 100.699 20.9712 100.699 23.2032C100.699 25.4352 99.7874 26.9232 98.0834 26.9232ZM98.1074 29.7072C102.067 29.7072 104.659 26.8992 104.659 23.2032C104.659 19.5072 102.067 16.6992 98.1074 16.6992C94.1714 16.6992 91.5314 19.5072 91.5314 23.2032C91.5314 26.8992 94.1714 29.7072 98.1074 29.7072Z"
      fill="currentColor" />
    <path d="M105.802 29.3232H109.714V17.0352H105.802V29.3232ZM105.802 15.3312H109.714V12.1632H105.802V15.3312Z"
      fill="currentColor" />
    <path
      d="M111.411 33.3792H115.323V28.0512H115.371C116.139 29.0832 117.267 29.7072 118.851 29.7072C122.067 29.7072 124.203 27.1632 124.203 23.1792C124.203 19.4832 122.211 16.6752 118.947 16.6752C117.267 16.6752 116.067 17.4192 115.227 18.5232H115.155V17.0352H111.411V33.3792ZM117.843 26.6832C116.163 26.6832 115.203 25.3152 115.203 23.3232C115.203 21.3312 116.067 19.8192 117.771 19.8192C119.451 19.8192 120.243 21.2112 120.243 23.3232C120.243 25.4112 119.331 26.6832 117.843 26.6832Z"
      fill="currentColor" />
    <path
      d="M130.572 29.7072C133.788 29.7072 136.164 28.3152 136.164 25.6272C136.164 22.4832 133.62 21.9312 131.46 21.5712C129.9 21.2832 128.508 21.1632 128.508 20.2992C128.508 19.5312 129.252 19.1712 130.212 19.1712C131.292 19.1712 132.036 19.5072 132.18 20.6112H135.78C135.588 18.1872 133.716 16.6752 130.236 16.6752C127.332 16.6752 124.932 18.0192 124.932 20.6112C124.932 23.4912 127.212 24.0672 129.348 24.4272C130.98 24.7152 132.468 24.8352 132.468 25.9392C132.468 26.7312 131.724 27.1632 130.548 27.1632C129.252 27.1632 128.436 26.5632 128.292 25.3392H124.596C124.716 28.0512 126.972 29.7072 130.572 29.7072Z"
      fill="currentColor" />
    <path
      d="M141.478 29.6832C143.182 29.6832 144.262 29.0112 145.15 27.8112H145.222V29.3232H148.966V17.0352H145.054V23.8992C145.054 25.3632 144.238 26.3712 142.894 26.3712C141.646 26.3712 141.046 25.6272 141.046 24.2832V17.0352H137.158V25.0992C137.158 27.8352 138.646 29.6832 141.478 29.6832Z"
      fill="currentColor" />
    <path
      d="M150.668 29.3232H154.58V22.4352C154.58 20.9712 155.3 19.9392 156.524 19.9392C157.7 19.9392 158.252 20.7072 158.252 22.0272V29.3232H162.164V22.4352C162.164 20.9712 162.86 19.9392 164.108 19.9392C165.284 19.9392 165.836 20.7072 165.836 22.0272V29.3232H169.748V21.3312C169.748 18.5712 168.356 16.6752 165.572 16.6752C163.988 16.6752 162.668 17.3472 161.708 18.8352H161.66C161.036 17.5152 159.812 16.6752 158.204 16.6752C156.428 16.6752 155.252 17.5152 154.484 18.7872H154.412V17.0352H150.668V29.3232Z"
      fill="currentColor" />
    <path fill-rule="evenodd" clip-rule="evenodd"
      d="M20.6014 40.3232C31.6472 40.3232 40.6014 31.3689 40.6014 20.3232C40.6014 9.27754 31.6472 0.323242 20.6014 0.323242C9.55573 0.323242 0.60144 9.27754 0.60144 20.3232C0.60144 31.3689 9.55573 40.3232 20.6014 40.3232ZM23.6884 15.7758C25.3932 14.0709 25.3932 11.3068 23.6884 9.6019C21.9835 7.89702 19.2194 7.89702 17.5145 9.6019C15.8097 11.3068 15.8097 14.0709 17.5145 15.7758L20.6014 18.8627L23.6884 15.7758ZM25.1489 23.4102C26.8538 25.1151 29.6179 25.1151 31.3228 23.4102C33.0276 21.7053 33.0276 18.9412 31.3228 17.2363C29.6179 15.5315 26.8538 15.5315 25.1489 17.2363L22.062 20.3233L25.1489 23.4102ZM23.6884 31.0446C25.3932 29.3397 25.3932 26.5756 23.6884 24.8707L20.6014 21.7838L17.5145 24.8707C15.8097 26.5756 15.8097 29.3397 17.5145 31.0446C19.2194 32.7495 21.9835 32.7495 23.6884 31.0446ZM9.88007 23.4102C8.17523 21.7053 8.17523 18.9412 9.88007 17.2363C11.585 15.5315 14.3491 15.5315 16.054 17.2363L19.1409 20.3233L16.054 23.4102C14.3491 25.1151 11.585 25.1151 9.88007 23.4102Z"
      fill="currentColor" />
  </g>
  <defs>
    <clipPath id="clip0_19_74">
      <rect width="170" height="41" fill="white" transform="translate(0.5)" />
    </clipPath>
  </defs>
</svg>